G70*
%OFA0B0*%
%FSLAX24Y24*%
%IPPOS*%
%LPD*%
%ADD59C,0.0079*%
D59*
X012069Y020575D02*
X011927Y020476D01*
X011927Y020476D02*
X011804Y020353D01*
X012226Y020649D02*
X012069Y020575D01*
X011571Y019713D02*
X011571Y019704D01*
X011704Y020211D02*
X011631Y020053D01*
X011804Y020353D02*
X011704Y020211D01*
X011586Y019886D02*
X011571Y019713D01*
X011631Y020053D02*
X011586Y019886D01*
X019881Y012393D02*
X020436Y012771D01*
X019188Y012073D02*
X019881Y012393D01*
X013881Y019141D02*
X013958Y019125D01*
X013808Y019171D02*
X013881Y019141D01*
X013682Y019265D02*
X013741Y019212D01*
X013633Y019327D02*
X013682Y019265D01*
X018450Y011878D02*
X019188Y012073D01*
X013741Y019212D02*
X013808Y019171D01*
X013563Y019713D02*
X013563Y019553D01*
X013958Y019125D02*
X014004Y019122D01*
X013596Y019396D02*
X013633Y019327D01*
X013571Y019471D02*
X013596Y019396D01*
X013560Y019550D02*
X013571Y019471D01*
X018450Y011878D02*
X011586Y011878D01*
X011586Y011878D02*
X011583Y011882D01*
X011583Y011882D02*
X011583Y019692D01*
X013563Y019553D02*
X013560Y019550D01*
X013330Y020353D02*
X013207Y020476D01*
X013503Y020053D02*
X013430Y020211D01*
X013430Y020211D02*
X013330Y020353D01*
X013563Y019713D02*
X013548Y019886D01*
X013548Y019886D02*
X013503Y020053D01*
X012567Y020709D02*
X012394Y020694D01*
X012394Y020694D02*
X012226Y020649D01*
X016422Y020366D02*
X015713Y020079D01*
X017171Y020525D02*
X016422Y020366D01*
X013207Y020476D02*
X013065Y020575D01*
X013065Y020575D02*
X012908Y020649D01*
X015064Y019674D02*
X014661Y019331D01*
X015713Y020079D02*
X015064Y019674D01*
X012908Y020649D02*
X012740Y020694D01*
X012740Y020694D02*
X012567Y020709D01*
X014356Y019137D02*
X014466Y019181D01*
X014466Y019181D02*
X014567Y019244D01*
X014122Y019108D02*
X014240Y019112D01*
X014240Y019112D02*
X014356Y019137D01*
X014122Y019108D02*
X014004Y019122D01*
X011583Y019692D02*
X011571Y019704D01*
X014567Y019244D02*
X014655Y019324D01*
X014655Y019324D02*
X014661Y019331D01*
X023122Y016012D02*
X023122Y012768D01*
X023122Y012768D02*
X023126Y012764D01*
X023126Y012764D02*
X020445Y012764D01*
X020445Y012764D02*
X020441Y012768D01*
X025787Y016087D02*
X023197Y016087D01*
X018004Y020831D02*
X017917Y020876D01*
X021246Y020405D02*
X021165Y020383D01*
X018149Y020700D02*
X018082Y020772D01*
X018082Y020772D02*
X018004Y020831D01*
X021330Y020413D02*
X021246Y020405D01*
X019703Y020081D02*
X018997Y020369D01*
X020348Y019675D02*
X019703Y020081D01*
X018253Y020530D02*
X018238Y020532D01*
X018997Y020369D02*
X018253Y020530D01*
X017185Y020567D02*
X017172Y020531D01*
X023197Y016087D02*
X023122Y016012D01*
X017726Y020916D02*
X017629Y020912D01*
X017629Y020912D02*
X017533Y020890D01*
X017917Y020876D02*
X017823Y020904D01*
X017823Y020904D02*
X017726Y020916D01*
X017533Y020890D02*
X017443Y020852D01*
X017289Y020732D02*
X017230Y020654D01*
X017230Y020654D02*
X017185Y020567D01*
X017443Y020852D02*
X017361Y020798D01*
X017361Y020798D02*
X017289Y020732D01*
X018202Y020618D02*
X018149Y020700D01*
X020878Y020091D02*
X020857Y020009D01*
X020913Y020168D02*
X020878Y020091D01*
X025787Y020413D02*
X021330Y020413D01*
X020857Y020009D02*
X020850Y019929D01*
X020961Y020237D02*
X020913Y020168D01*
X020752Y019673D02*
X020350Y019673D01*
X020850Y019772D02*
X020752Y019673D01*
X025787Y020413D02*
X025787Y016087D01*
X020350Y019673D02*
X020348Y019675D01*
X020850Y019929D02*
X020850Y019772D01*
X018240Y020528D02*
X018202Y020618D01*
X021020Y020297D02*
X020961Y020237D01*
X021089Y020346D02*
X021020Y020297D01*
X021165Y020383D02*
X021089Y020346D01*
M02*
