M48
INCH,TZ
T01C0.0945
T02C0.0118
T03C0.0157
T04C0.0236
T05C0.0394
T06C0.0413
T07C0.0945
%
T01
X12567Y19713
T02
X15965Y18291
X15433Y16063
X17154Y17217
X19055Y14004
X20476Y13992
X14126Y16811
X18650Y17551
X15268Y14098
X18646Y15181
X18651Y13359
X17575Y16949
X19370Y17701
X22832Y18634
X14441Y16193
X16921Y16126
X12083Y12817
X15591Y16843
X15496Y15417
X20280Y18102
X22734Y17784
X16445Y13957
X20083Y13976
X17185Y16126
X25567Y18232
X16413Y16429
X24587Y18264
X19339Y15374
X14654Y15610
X20339Y16673
X17024Y14906
X19539Y14315
X22528Y18307
X19091Y14661
X19976Y17343
X23165Y18276
X19654Y19606
X18449Y15386
X18339Y18626
X15965Y17854
X18209Y13976
X15913Y17315
X20102Y16870
X17791Y18626
X18100Y18183
X21295Y19240
X25035Y16764
X21059Y17008
X19941Y16303
X19350Y19913
X16630Y15795
X19308Y18958
X20689Y15122
X20689Y14795
X18689Y19161
X15833Y15664
X16803Y17949
X12547Y15260
X18469Y14000
X17134Y15465
X17528Y15087
X18087Y15000
X18087Y15000
X18020Y16929
X16472Y13035
X18988Y16461
X17563Y16122
X19791Y16587
X17772Y14618
X17709Y12626
X19791Y16587
X15083Y17394
X12130Y17941
X14220Y14134
X23714Y19504
X22612Y14063
X15665Y13614
X18689Y19551
X20622Y17768
X16256Y13724
X15433Y14803
X18693Y20039
X20681Y15602
X14268Y13063
X20232Y17122
X16831Y18291
X12547Y15587
X12896Y14173
T03
X13278Y18024
X13278Y15591
X13281Y13063
X13278Y17630
X13278Y15197
X21396Y13626
X13281Y12669
X21396Y14020
T04
X16764Y13697
X18664Y13697
T05
X19114Y12547
X16315Y12547
T06
X24988Y18945
X24988Y17567
T07
X22087Y15839
M30
