G70*
%OFA0B0*%
%FSLAX24Y24*%
%IPPOS*%
%LPD*%
%ADD56C,0.0060*%
%ADD57C,0.0063*%
%ADD58C,0.0075*%
%ADD59C,0.0079*%
%ADD60C,0.0087*%
%ADD63C,0.0100*%
%ADD64C,0.0102*%
%ADD66C,0.0118*%
%ADD69C,0.0157*%
D56*
X014311Y015366D02*
X014311Y015622D01*
X014350Y015622D02*
X014272Y015622D01*
X014665Y015366D02*
X014508Y015366D01*
X014587Y015366D02*
X014587Y015622D01*
X014311Y015366D02*
X014350Y015406D01*
D57*
X019386Y019646D02*
X019386Y019488D01*
X019248Y019646D02*
X019248Y019528D01*
X019248Y019528D02*
X019287Y019488D01*
X019346Y019488D02*
X019386Y019528D01*
X019287Y019488D02*
X019346Y019488D01*
X015342Y013408D02*
X015343Y013409D01*
X014905Y013408D02*
X015342Y013408D01*
X015571Y018707D02*
X015447Y018583D01*
X015447Y018583D02*
X015447Y018547D01*
X015482Y018778D02*
X015535Y018778D01*
X015571Y018547D02*
X015447Y018547D01*
X023110Y019055D02*
X022669Y019055D01*
X021051Y018106D02*
X021091Y018067D01*
X021091Y018067D02*
X021091Y018028D01*
X015709Y013028D02*
X015709Y013106D01*
X015453Y013067D02*
X015492Y013028D01*
X015252Y018778D02*
X015252Y018547D01*
X014986Y018547D02*
X015039Y018547D01*
X015217Y018547D02*
X015287Y018547D01*
X015252Y018778D02*
X015217Y018742D01*
X014951Y018583D02*
X014986Y018547D01*
X014986Y018778D02*
X014951Y018742D01*
X015039Y018778D02*
X014986Y018778D01*
X014951Y018742D02*
X014951Y018583D01*
X015571Y018707D02*
X015571Y018742D01*
X015482Y018778D02*
X015447Y018742D01*
X015535Y018778D02*
X015571Y018742D01*
X021642Y017949D02*
X021642Y017890D01*
X021602Y018106D02*
X021642Y018067D01*
X021602Y017988D02*
X021642Y017949D01*
X021366Y017969D02*
X021307Y017969D01*
X021642Y017890D02*
X021602Y017850D01*
X021642Y018067D02*
X021642Y018028D01*
X021504Y017850D02*
X021504Y018106D01*
X021602Y017988D02*
X021504Y017988D01*
X021602Y017850D02*
X021504Y017850D01*
X021642Y018028D02*
X021602Y017988D01*
X021504Y018106D02*
X021602Y018106D01*
X021091Y018028D02*
X021051Y017988D01*
X021228Y018067D02*
X021228Y017890D01*
X021228Y017890D02*
X021268Y017850D01*
X021366Y017890D02*
X021327Y017850D01*
X021327Y018106D02*
X021268Y018106D01*
X021327Y018106D02*
X021366Y018067D01*
X021012Y017988D02*
X021091Y017850D01*
X020953Y017850D02*
X020953Y018106D01*
X020953Y018106D02*
X021051Y018106D01*
X021051Y017988D02*
X020953Y017988D01*
X021268Y017850D02*
X021327Y017850D01*
X021366Y017890D02*
X021366Y017969D01*
X015453Y013067D02*
X015709Y013067D01*
X015039Y018778D02*
X015075Y018742D01*
X022685Y018425D02*
X022685Y017984D01*
X021268Y018106D02*
X021228Y018067D01*
X013752Y015933D02*
X014035Y015933D01*
X015075Y018583D02*
X015039Y018547D01*
X013894Y015839D02*
X013894Y016028D01*
X013752Y013339D02*
X014035Y013339D01*
X013894Y013244D02*
X013894Y013433D01*
X019092Y016091D02*
X019104Y016042D01*
X019088Y016141D02*
X019092Y016091D01*
X019092Y016191D02*
X019088Y016141D01*
X019154Y015956D02*
X019189Y015920D01*
X019125Y015997D02*
X019154Y015956D01*
X019104Y016042D02*
X019125Y015997D01*
X019106Y016239D02*
X019092Y016191D01*
X019233Y016389D02*
X019192Y016360D01*
X019279Y016410D02*
X019233Y016389D01*
X019327Y016422D02*
X019279Y016410D01*
X019127Y016284D02*
X019106Y016239D01*
X019156Y016325D02*
X019127Y016284D01*
X019192Y016360D02*
X019156Y016325D01*
X019189Y015920D02*
X019230Y015891D01*
X019323Y015856D02*
X019373Y015851D01*
X019275Y015869D02*
X019323Y015856D01*
X019230Y015891D02*
X019275Y015869D01*
X019377Y016426D02*
X019327Y016422D01*
X014768Y013287D02*
X014807Y013248D01*
X020312Y018317D02*
X020308Y018367D01*
X020308Y018267D02*
X020312Y018317D01*
X014709Y013150D02*
X014669Y013189D01*
X014768Y013150D02*
X014709Y013150D01*
X014807Y013248D02*
X014807Y013189D01*
X020294Y018219D02*
X020308Y018267D01*
X020167Y018069D02*
X020208Y018098D01*
X020121Y018049D02*
X020167Y018069D01*
X020073Y018036D02*
X020121Y018049D01*
X020273Y018174D02*
X020294Y018219D01*
X020244Y018133D02*
X020273Y018174D01*
X020208Y018098D02*
X020244Y018133D01*
X020308Y018367D02*
X020296Y018416D01*
X020125Y018589D02*
X020077Y018602D01*
X020170Y018567D02*
X020125Y018589D01*
X020211Y018538D02*
X020170Y018567D01*
X014689Y013346D02*
X014669Y013256D01*
X020027Y018607D02*
X019977Y018603D01*
X020077Y018602D02*
X020027Y018607D01*
X020246Y018502D02*
X020211Y018538D01*
X014669Y013256D02*
X014669Y013189D01*
X014709Y013287D02*
X014669Y013248D01*
X014768Y013287D02*
X014709Y013287D01*
X020275Y018461D02*
X020246Y018502D01*
X020296Y018416D02*
X020275Y018461D01*
X014689Y013346D02*
X014728Y013406D01*
X020023Y018032D02*
X020073Y018036D01*
X014492Y013406D02*
X014531Y013366D01*
X014531Y013366D02*
X014531Y013327D01*
X014807Y013189D02*
X014768Y013150D01*
X014453Y013287D02*
X014531Y013150D01*
X014394Y013406D02*
X014492Y013406D01*
X014531Y013327D02*
X014492Y013287D01*
X014492Y013287D02*
X014394Y013287D01*
X014394Y013150D02*
X014394Y013406D01*
X018602Y014339D02*
X018563Y014299D01*
X018209Y014299D02*
X018268Y014299D01*
X019658Y016187D02*
X019646Y016235D01*
X018602Y014417D02*
X018602Y014339D01*
X018563Y014457D02*
X018602Y014417D01*
X019646Y016235D02*
X019625Y016281D01*
X019662Y016137D02*
X019658Y016187D01*
X019644Y016039D02*
X019658Y016087D01*
X019623Y015993D02*
X019644Y016039D01*
X019594Y015953D02*
X019623Y015993D01*
X019658Y016087D02*
X019662Y016137D01*
X018209Y014555D02*
X018209Y014299D01*
X018268Y014555D02*
X018209Y014555D01*
X018563Y014457D02*
X018465Y014457D01*
X019561Y016358D02*
X019520Y016387D01*
X019596Y016322D02*
X019561Y016358D01*
X018819Y014299D02*
X018760Y014299D01*
X019427Y016421D02*
X019377Y016426D01*
X019475Y016408D02*
X019427Y016421D01*
X019520Y016387D02*
X019475Y016408D01*
X018819Y014555D02*
X018819Y014299D01*
X018465Y014555D02*
X018583Y014555D01*
X019625Y016281D02*
X019596Y016322D01*
X018465Y014555D02*
X018465Y014457D01*
X018760Y014555D02*
X018819Y014555D01*
X018504Y014299D02*
X018465Y014339D01*
X018563Y014299D02*
X018504Y014299D01*
X019558Y015917D02*
X019594Y015953D01*
X019742Y018271D02*
X019754Y018223D01*
X019738Y018321D02*
X019742Y018271D01*
X019742Y018371D02*
X019738Y018321D01*
X019804Y018136D02*
X019839Y018100D01*
X019775Y018177D02*
X019804Y018136D01*
X019754Y018223D02*
X019775Y018177D01*
X019756Y018419D02*
X019742Y018371D01*
X019883Y018569D02*
X019842Y018541D01*
X019929Y018590D02*
X019883Y018569D01*
X019977Y018603D02*
X019929Y018590D01*
X019777Y018465D02*
X019756Y018419D01*
X019806Y018506D02*
X019777Y018465D01*
X019842Y018541D02*
X019806Y018506D01*
X019839Y018100D02*
X019880Y018071D01*
X019373Y015851D02*
X019423Y015855D01*
X019517Y015889D02*
X019558Y015917D01*
X019471Y015868D02*
X019517Y015889D01*
X019423Y015855D02*
X019471Y015868D01*
X019973Y018037D02*
X020023Y018032D01*
X019925Y018050D02*
X019973Y018037D01*
X019880Y018071D02*
X019925Y018050D01*
X013358Y018323D02*
X013642Y018323D01*
X021310Y015054D02*
X021310Y015322D01*
X013500Y018228D02*
X013500Y018417D01*
X020398Y015846D02*
X020398Y015906D01*
X020398Y015906D02*
X020437Y015945D01*
X020496Y015689D02*
X020535Y015728D01*
X020398Y015768D02*
X020437Y015807D01*
X020437Y015807D02*
X020496Y015807D01*
X020437Y015807D02*
X020398Y015846D01*
X020496Y015689D02*
X020437Y015689D01*
X020161Y015807D02*
X020122Y015846D01*
X020122Y015846D02*
X020122Y015906D01*
X020161Y015689D02*
X020122Y015728D01*
X020437Y015945D02*
X020496Y015945D01*
X020496Y015945D02*
X020535Y015906D01*
X020122Y015906D02*
X020161Y015945D01*
X020398Y015768D02*
X020398Y015728D01*
X020713Y015945D02*
X020772Y015945D01*
X020772Y015945D02*
X020811Y015906D01*
X020713Y015807D02*
X020772Y015807D01*
X020713Y015689D02*
X020673Y015728D01*
X020673Y015728D02*
X020673Y015768D01*
X020673Y015768D02*
X020713Y015807D01*
X020772Y015807D02*
X020811Y015846D01*
X020811Y015728D02*
X020772Y015689D01*
X020772Y015689D02*
X020713Y015689D01*
X020437Y015689D02*
X020398Y015728D01*
X020811Y015846D02*
X020811Y015906D01*
X020772Y015807D02*
X020811Y015768D01*
X020811Y015768D02*
X020811Y015728D01*
X020122Y015728D02*
X020122Y015768D01*
X020161Y015807D02*
X020220Y015807D01*
X020220Y015807D02*
X020260Y015846D01*
X020260Y015846D02*
X020260Y015906D01*
X020122Y015768D02*
X020161Y015807D01*
X020161Y015945D02*
X020220Y015945D01*
X020220Y015945D02*
X020260Y015906D01*
X020220Y015807D02*
X020260Y015768D01*
X020260Y015768D02*
X020260Y015728D01*
X020260Y015728D02*
X020220Y015689D01*
X020220Y015689D02*
X020161Y015689D01*
X020988Y015807D02*
X021047Y015807D01*
X021047Y015807D02*
X021087Y015846D01*
X021087Y015846D02*
X021087Y015906D01*
X020949Y015768D02*
X020988Y015807D01*
X020988Y015945D02*
X021047Y015945D01*
X021047Y015945D02*
X021087Y015906D01*
X021047Y015807D02*
X021087Y015768D01*
X020673Y015906D02*
X020713Y015945D01*
X020713Y015807D02*
X020673Y015846D01*
X020673Y015846D02*
X020673Y015906D01*
X021087Y015768D02*
X021087Y015728D01*
X021087Y015728D02*
X021047Y015689D01*
X021047Y015689D02*
X020988Y015689D01*
X020949Y015728D02*
X020949Y015768D01*
X020988Y015807D02*
X020949Y015846D01*
X020949Y015846D02*
X020949Y015906D01*
X020988Y015689D02*
X020949Y015728D01*
X020949Y015906D02*
X020988Y015945D01*
X018823Y019043D02*
X018783Y019004D01*
X018783Y019004D02*
X018783Y018827D01*
X018882Y019043D02*
X018823Y019043D01*
X019157Y018787D02*
X019098Y018787D01*
X019059Y019043D02*
X019177Y019043D01*
X019059Y019043D02*
X019059Y018945D01*
X019098Y018787D02*
X019059Y018827D01*
X018969Y017371D02*
X019009Y017332D01*
X018969Y017371D02*
X018910Y017371D01*
X018969Y017489D02*
X019009Y017450D01*
X018823Y018787D02*
X018882Y018787D01*
X018783Y018827D02*
X018823Y018787D01*
X019197Y018827D02*
X019157Y018787D01*
X019157Y018945D02*
X019059Y018945D01*
X019197Y018906D02*
X019197Y018827D01*
X019157Y018945D02*
X019197Y018906D01*
X021035Y013327D02*
X021319Y013327D01*
X021177Y013232D02*
X021177Y013421D01*
X018921Y018827D02*
X018882Y018787D01*
X018882Y019043D02*
X018921Y019004D01*
X023343Y017811D02*
X023520Y017811D01*
X023382Y017811D02*
X023343Y017850D01*
X023343Y017850D02*
X023343Y017929D01*
X023362Y017555D02*
X023520Y017555D01*
X023402Y017693D02*
X023362Y017654D01*
X023362Y017654D02*
X023362Y017594D01*
X023362Y017594D02*
X023402Y017555D01*
X023480Y018106D02*
X023520Y018146D01*
X023520Y018146D02*
X023520Y018205D01*
X023520Y018205D02*
X023480Y018244D01*
X023382Y017890D02*
X023520Y017890D01*
X023343Y017929D02*
X023382Y017969D01*
X023382Y017969D02*
X023520Y017969D01*
X023343Y017850D02*
X023382Y017890D01*
X023520Y017319D02*
X023520Y017417D01*
X023382Y017043D02*
X023382Y017102D01*
X023382Y017102D02*
X023421Y017142D01*
X023421Y017142D02*
X023520Y017142D01*
X023421Y017004D02*
X023382Y017043D01*
X023264Y016787D02*
X023520Y016787D01*
X023264Y016709D02*
X023264Y016866D01*
X023264Y017004D02*
X023520Y017004D01*
X023402Y017280D02*
X023480Y017280D01*
X023441Y017280D02*
X023441Y017417D01*
X023402Y017417D02*
X023441Y017417D01*
X023362Y017319D02*
X023402Y017280D01*
X023480Y017280D02*
X023520Y017319D01*
X023402Y017417D02*
X023362Y017378D01*
X023362Y017378D02*
X023362Y017319D01*
X023402Y018795D02*
X023480Y018795D01*
X023362Y018933D02*
X023480Y018933D01*
X023480Y018933D02*
X023520Y018972D01*
X023402Y018657D02*
X023480Y018657D01*
X023402Y018795D02*
X023362Y018756D01*
X023362Y018756D02*
X023362Y018697D01*
X023362Y018697D02*
X023402Y018657D01*
X023323Y019248D02*
X023323Y019307D01*
X023323Y019307D02*
X023362Y019346D01*
X023402Y019209D02*
X023441Y019248D01*
X023362Y019209D02*
X023323Y019248D01*
X023520Y018972D02*
X023520Y019031D01*
X023520Y019031D02*
X023480Y019071D01*
X023362Y019071D02*
X023520Y019071D01*
X023520Y018756D02*
X023480Y018795D01*
X023402Y018244D02*
X023480Y018244D01*
X023480Y018382D02*
X023520Y018421D01*
X023520Y018421D02*
X023520Y018480D01*
X023402Y018106D02*
X023480Y018106D01*
X023402Y018244D02*
X023362Y018205D01*
X023362Y018205D02*
X023362Y018146D01*
X023362Y018146D02*
X023402Y018106D01*
X023402Y018382D02*
X023480Y018382D01*
X023480Y018657D02*
X023520Y018697D01*
X023520Y018697D02*
X023520Y018756D01*
X023362Y018421D02*
X023402Y018382D01*
X023520Y018480D02*
X023480Y018520D01*
X023402Y018520D02*
X023362Y018480D01*
X023362Y018480D02*
X023362Y018421D01*
X018362Y016311D02*
X018421Y016311D01*
X018500Y018024D02*
X018500Y017925D01*
X018421Y017886D02*
X018382Y017925D01*
X018461Y017886D02*
X018421Y017886D01*
X018244Y018024D02*
X018500Y018024D01*
X018421Y017768D02*
X018244Y017768D01*
X018382Y017965D02*
X018244Y017886D01*
X018382Y017925D02*
X018382Y018024D01*
X018622Y016114D02*
X018701Y016055D01*
X018213Y016311D02*
X018213Y016055D01*
X018500Y017925D02*
X018461Y017886D01*
X018213Y016311D02*
X018173Y016272D01*
X018173Y016055D02*
X018252Y016055D01*
X018382Y017768D02*
X018421Y017728D01*
X018362Y017374D02*
X018323Y017335D01*
X018382Y017335D02*
X018421Y017374D01*
X018244Y017335D02*
X018382Y017335D01*
X018283Y017472D02*
X018323Y017472D01*
X018323Y017472D02*
X018362Y017433D01*
X018362Y017433D02*
X018362Y017374D01*
X018421Y017374D02*
X018421Y017433D01*
X018382Y017610D02*
X018244Y017610D01*
X018421Y017650D02*
X018382Y017610D01*
X018421Y017728D02*
X018421Y017650D01*
X018421Y017728D02*
X018382Y017689D01*
X018244Y017433D02*
X018244Y017335D01*
X018244Y017433D02*
X018283Y017472D01*
X018382Y017689D02*
X018244Y017689D01*
X023035Y017307D02*
X022996Y017268D01*
X023035Y017307D02*
X023094Y017307D01*
X023134Y017051D02*
X022996Y017051D01*
X023134Y017228D02*
X023134Y017268D01*
X022720Y017307D02*
X022858Y017307D01*
X022819Y017189D02*
X022720Y017189D01*
X023094Y017307D02*
X023134Y017268D01*
X018421Y016055D02*
X018362Y016055D01*
X018323Y016094D02*
X018362Y016055D01*
X018323Y016272D02*
X018323Y016094D01*
X018563Y016311D02*
X018563Y016055D01*
X023134Y017228D02*
X022996Y017091D01*
X022996Y017091D02*
X022996Y017051D01*
X018701Y016193D02*
X018563Y016055D01*
X022720Y017051D02*
X022720Y017307D01*
X015492Y013303D02*
X015669Y013303D01*
X015669Y013303D02*
X015709Y013264D01*
X015453Y013205D02*
X015492Y013165D01*
X015453Y013264D02*
X015492Y013303D01*
X019598Y014476D02*
X019598Y014220D01*
X019736Y014358D02*
X019598Y014220D01*
X019657Y014280D02*
X019736Y014220D01*
X015453Y013429D02*
X015709Y013429D01*
X015571Y013567D02*
X015709Y013429D01*
X015650Y013488D02*
X015709Y013567D01*
X015709Y013264D02*
X015709Y013205D01*
X015453Y013205D02*
X015453Y013264D01*
X015492Y013165D02*
X015669Y013165D01*
X015669Y013165D02*
X015709Y013205D01*
X023362Y019346D02*
X023402Y019346D01*
X018910Y017489D02*
X018969Y017489D01*
X018910Y017489D02*
X018871Y017450D01*
X018969Y017233D02*
X018910Y017233D01*
X018871Y017410D02*
X018910Y017371D01*
X018871Y017410D02*
X018871Y017450D01*
X018910Y017233D02*
X018871Y017273D01*
X019147Y017233D02*
X019206Y017371D01*
X019127Y017489D02*
X019147Y017233D01*
X019134Y019736D02*
X019134Y019480D01*
X019265Y017233D02*
X019284Y017489D01*
X019895Y016635D02*
X019895Y015603D01*
X018836Y016631D02*
X018836Y015599D01*
X019206Y017371D02*
X019265Y017233D01*
X019094Y019480D02*
X019173Y019480D01*
X019134Y019736D02*
X019094Y019697D01*
X019009Y017273D02*
X018969Y017233D01*
X019009Y017332D02*
X019009Y017273D01*
X022551Y019043D02*
X022512Y019004D01*
X023053Y018390D02*
X023013Y018351D01*
X023013Y018351D02*
X023013Y018292D01*
X023171Y017977D02*
X023131Y018016D01*
X023230Y018390D02*
X023053Y018390D01*
X023269Y018292D02*
X023230Y018252D01*
X023269Y018292D02*
X023269Y018351D01*
X023269Y018351D02*
X023230Y018390D01*
X023269Y018016D02*
X023269Y018075D01*
X023269Y018075D02*
X023230Y018114D01*
X023230Y018114D02*
X023171Y018114D01*
X023131Y018075D02*
X023171Y018114D01*
X023269Y018016D02*
X023230Y017977D01*
X023230Y017977D02*
X023112Y017977D01*
X023131Y018016D02*
X023131Y018075D01*
X023053Y018252D02*
X023013Y018292D01*
X023264Y019543D02*
X023520Y019543D01*
X023520Y019504D02*
X023520Y019583D01*
X023480Y019760D02*
X023520Y019799D01*
X023264Y019504D02*
X023264Y019543D01*
X023441Y019248D02*
X023441Y019307D01*
X023402Y019346D02*
X023441Y019307D01*
X023323Y019209D02*
X023539Y019209D01*
X023441Y019760D02*
X023441Y019898D01*
X023402Y019898D02*
X023441Y019898D01*
X023520Y019799D02*
X023520Y019898D01*
X023402Y019760D02*
X023480Y019760D01*
X023402Y019898D02*
X023362Y019858D01*
X023362Y019858D02*
X023362Y019799D01*
X023362Y019799D02*
X023402Y019760D01*
X022535Y017909D02*
X022496Y017870D01*
X022496Y017870D02*
X022358Y017870D01*
X022535Y018008D02*
X022358Y018008D01*
X022350Y018169D02*
X022350Y018228D01*
X022606Y018228D02*
X022606Y018169D01*
X022567Y018268D02*
X022390Y018268D01*
X022390Y018268D02*
X022350Y018228D01*
X022315Y018925D02*
X022217Y018925D01*
X022551Y019043D02*
X022551Y018787D01*
X022512Y018787D02*
X022591Y018787D01*
X022217Y019043D02*
X022354Y019043D01*
X022496Y018008D02*
X022535Y017969D01*
X022535Y017969D02*
X022535Y017909D01*
X022217Y018787D02*
X022217Y019043D01*
X022606Y018228D02*
X022567Y018268D01*
X018461Y016272D02*
X018461Y016094D01*
X018421Y016311D02*
X018461Y016272D01*
X019584Y017127D02*
X019147Y017127D01*
X018461Y016094D02*
X018421Y016055D01*
X023013Y018075D02*
X023053Y017996D01*
X023053Y017996D02*
X023112Y017977D01*
X018362Y016311D02*
X018323Y016272D01*
X022606Y018169D02*
X022567Y018130D01*
X022567Y018130D02*
X022390Y018130D01*
X022390Y018130D02*
X022350Y018169D01*
X022606Y018398D02*
X022567Y018437D01*
X019592Y015119D02*
X019155Y015119D01*
X022606Y018398D02*
X022350Y018398D01*
X022350Y018437D02*
X022350Y018358D01*
X019118Y013650D02*
X019079Y013689D01*
X019197Y013650D02*
X019118Y013650D01*
X019079Y013748D02*
X019118Y013787D01*
X019079Y013689D02*
X019079Y013748D01*
X023118Y017429D02*
X022689Y017429D01*
X019236Y013689D02*
X019197Y013650D01*
X019236Y013098D02*
X018980Y013098D01*
X018980Y013098D02*
X018980Y013197D01*
X019098Y013157D02*
X019236Y013236D01*
X019098Y013197D02*
X019098Y013098D01*
X016986Y012271D02*
X016970Y012256D01*
X016970Y012256D02*
X016957Y012238D01*
X017024Y012291D02*
X017004Y012283D01*
X017004Y012283D02*
X016986Y012271D01*
X019059Y013354D02*
X019236Y013354D01*
X019098Y013433D02*
X019236Y013433D01*
X019059Y013394D02*
X019098Y013433D01*
X019236Y013787D02*
X019236Y013689D01*
X018980Y013787D02*
X019236Y013787D01*
X019059Y013394D02*
X019059Y013472D01*
X019098Y013354D02*
X019059Y013394D01*
X019098Y013512D02*
X019236Y013512D01*
X019059Y013472D02*
X019098Y013512D01*
X016240Y013906D02*
X016240Y013846D01*
X016240Y013846D02*
X016201Y013807D01*
X015984Y013846D02*
X016024Y013807D01*
X015984Y013846D02*
X015984Y013906D01*
X015984Y014142D02*
X016024Y014102D01*
X015984Y014339D02*
X016240Y014496D01*
X015984Y014142D02*
X016240Y014142D01*
X016240Y014102D02*
X016240Y014181D01*
X016201Y013945D02*
X016240Y013906D01*
X015984Y013906D02*
X016024Y013945D01*
X016063Y013945D02*
X016024Y013945D01*
X016063Y013669D02*
X016201Y013531D01*
X016201Y013531D02*
X016240Y013531D01*
X016102Y013906D02*
X016142Y013945D01*
X016142Y013945D02*
X016201Y013945D01*
X016063Y013945D02*
X016102Y013906D01*
X016102Y013906D02*
X016102Y013846D01*
X015984Y014496D02*
X016240Y014339D01*
X016925Y013466D02*
X016925Y013748D01*
X018500Y013748D02*
X018225Y013748D01*
X017185Y013748D02*
X016925Y013748D01*
X018500Y012173D02*
X018220Y012173D01*
X016925Y012173D02*
X016925Y012452D01*
X018500Y013461D02*
X018500Y013748D01*
X018500Y012173D02*
X018500Y012447D01*
X018980Y013197D02*
X019020Y013236D01*
X019480Y014476D02*
X019480Y014220D01*
X019059Y013236D02*
X019098Y013197D01*
X019020Y013236D02*
X019059Y013236D01*
X019441Y014220D02*
X019520Y014220D01*
X019480Y014476D02*
X019441Y014437D01*
X017244Y014461D02*
X017382Y014461D01*
X017067Y014717D02*
X017008Y014717D01*
X017008Y014717D02*
X016969Y014677D01*
X017106Y014500D02*
X017067Y014461D01*
X017067Y014717D02*
X017106Y014677D01*
X017008Y014461D02*
X017067Y014461D01*
X017244Y014717D02*
X017244Y014461D01*
X016969Y014677D02*
X016969Y014500D01*
X016969Y014500D02*
X017008Y014461D01*
X015311Y014500D02*
X015311Y014114D01*
X014390Y014488D02*
X014390Y014126D01*
X014579Y014488D02*
X014390Y014488D01*
X015394Y014496D02*
X015433Y014457D01*
X015102Y014500D02*
X015311Y014500D01*
X015650Y014457D02*
X015650Y014535D01*
X015610Y014299D02*
X015650Y014260D01*
X015610Y014161D02*
X015650Y014201D01*
X015610Y014299D02*
X015394Y014299D01*
X015394Y014496D02*
X015650Y014496D01*
X015650Y014201D02*
X015650Y014260D01*
X015394Y014161D02*
X015610Y014161D01*
X016831Y014500D02*
X016831Y014717D01*
X017038Y012051D02*
X017060Y012049D01*
X017060Y012049D02*
X017081Y012050D01*
X016998Y012067D02*
X017017Y012057D01*
X017017Y012057D02*
X017038Y012051D01*
X017122Y012064D02*
X017140Y012076D01*
X017140Y012076D02*
X017156Y012091D01*
X017081Y012050D02*
X017102Y012055D01*
X017102Y012055D02*
X017122Y012064D01*
X016980Y012080D02*
X016998Y012067D01*
X016941Y012198D02*
X016939Y012177D01*
X016939Y012177D02*
X016940Y012155D01*
X016957Y012238D02*
X016947Y012219D01*
X016947Y012219D02*
X016941Y012198D01*
X016954Y012114D02*
X016965Y012096D01*
X016965Y012096D02*
X016980Y012080D01*
X016940Y012155D02*
X016945Y012134D01*
X016945Y012134D02*
X016954Y012114D01*
X017156Y012091D02*
X017169Y012108D01*
X017088Y012295D02*
X017066Y012298D01*
X017066Y012298D02*
X017052Y012297D01*
X017128Y012279D02*
X017109Y012289D01*
X017109Y012289D02*
X017088Y012295D01*
X016732Y014461D02*
X016791Y014461D01*
X016693Y014717D02*
X016693Y014500D01*
X016831Y014500D02*
X016791Y014461D01*
X016693Y014500D02*
X016732Y014461D01*
X017146Y012266D02*
X017128Y012279D01*
X017185Y012148D02*
X017187Y012170D01*
X017187Y012170D02*
X017186Y012191D01*
X017169Y012108D02*
X017179Y012127D01*
X017179Y012127D02*
X017185Y012148D01*
X017172Y012232D02*
X017161Y012251D01*
X017161Y012251D02*
X017146Y012266D01*
X017186Y012191D02*
X017181Y012213D01*
X017181Y012213D02*
X017172Y012232D01*
X016240Y013669D02*
X016240Y013531D01*
X014845Y016879D02*
X014881Y016844D01*
X017894Y018028D02*
X017697Y018028D01*
X017756Y018165D02*
X017756Y017988D01*
X017874Y018264D02*
X017736Y018402D01*
X017736Y018402D02*
X017697Y018402D01*
X014845Y016932D02*
X014881Y016968D01*
X017697Y018264D02*
X017697Y018402D01*
X017953Y018303D02*
X017913Y018264D01*
X017953Y018362D02*
X017953Y018303D01*
X017874Y018264D02*
X017913Y018264D01*
X017953Y018362D02*
X017913Y018402D01*
X014845Y016879D02*
X014845Y016932D01*
X015076Y016879D02*
X015040Y016844D01*
X015076Y017145D02*
X014845Y017216D01*
X015076Y016932D02*
X015076Y016879D01*
X014845Y017074D02*
X015076Y017145D01*
X014952Y016932D02*
X014952Y016879D01*
X014952Y016932D02*
X014987Y016968D01*
X014916Y016968D02*
X014952Y016932D01*
X017953Y017260D02*
X017953Y017201D01*
X017697Y017161D02*
X017697Y017299D01*
X017874Y017161D02*
X017913Y017161D01*
X017953Y017260D02*
X017913Y017299D01*
X017874Y017161D02*
X017736Y017299D01*
X014916Y016968D02*
X014881Y016968D01*
X017736Y017299D02*
X017697Y017299D01*
X015040Y016968D02*
X015076Y016932D01*
X015984Y013315D02*
X016240Y013315D01*
X016102Y013079D02*
X016102Y012980D01*
X014987Y016968D02*
X015040Y016968D01*
X015984Y013236D02*
X015984Y013394D01*
X015984Y013571D02*
X016024Y013531D01*
X015984Y013571D02*
X015984Y013630D01*
X015984Y013630D02*
X016024Y013669D01*
X016063Y013669D02*
X016024Y013669D01*
X015984Y012980D02*
X015984Y013118D01*
X016240Y012980D02*
X015984Y012980D01*
X017874Y017437D02*
X017913Y017437D01*
X017874Y017437D02*
X017835Y017476D01*
X017697Y017811D02*
X017697Y017752D01*
X017953Y017476D02*
X017913Y017437D01*
X017795Y017437D02*
X017736Y017437D01*
X017835Y017476D02*
X017835Y017535D01*
X017835Y017476D02*
X017795Y017437D01*
X017736Y017713D02*
X017697Y017752D01*
X017953Y017752D02*
X017913Y017713D01*
X017972Y018067D02*
X017756Y018165D01*
X017913Y017850D02*
X017736Y017850D01*
X017736Y017850D02*
X017697Y017811D01*
X017953Y017752D02*
X017953Y017811D01*
X017953Y017811D02*
X017913Y017850D01*
X017953Y017535D02*
X017913Y017575D01*
X017736Y017437D02*
X017697Y017476D01*
X017953Y017535D02*
X017953Y017476D01*
X017953Y017201D02*
X017913Y017161D01*
X017697Y017535D02*
X017736Y017575D01*
X017697Y017476D02*
X017697Y017535D01*
D58*
X013906Y018961D02*
X013858Y018913D01*
X013783Y016657D02*
X013902Y016657D01*
X013902Y016657D02*
X013949Y016610D01*
X013618Y016610D02*
X013618Y016398D01*
X013854Y016516D02*
X013949Y016350D01*
X013783Y016350D02*
X013783Y016657D01*
X013902Y016516D02*
X013783Y016516D01*
X013949Y016610D02*
X013949Y016563D01*
X013240Y016350D02*
X013146Y016350D01*
X013949Y016563D02*
X013902Y016516D01*
X013618Y016398D02*
X013571Y016350D01*
X013571Y016657D02*
X013618Y016610D01*
X013476Y016657D02*
X013571Y016657D01*
X013476Y016657D02*
X013429Y016610D01*
X013571Y016350D02*
X013476Y016350D01*
X013098Y016398D02*
X013146Y016350D01*
X013098Y016610D02*
X013098Y016398D01*
X013429Y016610D02*
X013429Y016398D01*
X013429Y016398D02*
X013476Y016350D01*
X013287Y016398D02*
X013240Y016350D01*
X013287Y016610D02*
X013287Y016398D01*
X013126Y018748D02*
X013079Y018795D01*
X020244Y013110D02*
X020126Y013110D01*
X020433Y012945D02*
X020528Y013252D01*
X013079Y018961D02*
X013079Y019008D01*
X013811Y018913D02*
X013906Y018748D01*
X020126Y013252D02*
X020291Y013252D01*
X013079Y018961D02*
X013126Y018913D01*
X020528Y013252D02*
X020622Y012945D01*
X013126Y019055D02*
X013079Y019008D01*
X013244Y018795D02*
X013197Y018748D01*
X013244Y018866D02*
X013244Y018795D01*
X013126Y019055D02*
X013197Y019055D01*
X012957Y016398D02*
X012909Y016350D01*
X012909Y016657D02*
X012957Y016610D01*
X013197Y018748D02*
X013126Y018748D01*
X013528Y019055D02*
X013575Y019008D01*
X013409Y018961D02*
X013409Y019008D01*
X013409Y018961D02*
X013457Y018913D01*
X013858Y019055D02*
X013906Y019008D01*
X013457Y018748D02*
X013409Y018795D01*
X013457Y019055D02*
X013409Y019008D01*
X013457Y019055D02*
X013528Y019055D01*
X013528Y018748D02*
X013457Y018748D01*
X013575Y018795D02*
X013528Y018748D01*
X020126Y012945D02*
X020126Y013252D01*
X013740Y019055D02*
X013858Y019055D01*
X013740Y018748D02*
X013740Y019055D01*
X013906Y019008D02*
X013906Y018961D01*
X013575Y018866D02*
X013575Y018795D01*
X013528Y018913D02*
X013575Y018866D01*
X013528Y018913D02*
X013457Y018913D01*
X013803Y013606D02*
X013898Y013913D01*
X012957Y016610D02*
X012957Y016398D01*
X013146Y016657D02*
X013098Y016610D01*
X013520Y013606D02*
X013449Y013606D01*
X013449Y013606D02*
X013402Y013654D01*
X013709Y013913D02*
X013803Y013606D01*
X013146Y016657D02*
X013240Y016657D01*
X020787Y013252D02*
X020953Y012945D01*
X020953Y012945D02*
X020953Y013252D01*
X013858Y018913D02*
X013740Y018913D01*
X013240Y016657D02*
X013287Y016610D01*
X020457Y013016D02*
X020598Y013016D01*
X020787Y012945D02*
X020787Y013252D01*
X013402Y013913D02*
X013543Y013913D01*
X013197Y018913D02*
X013244Y018866D01*
X013567Y013748D02*
X013567Y013654D01*
X013520Y013795D02*
X013402Y013795D01*
X013520Y013795D02*
X013567Y013748D01*
X013197Y018913D02*
X013126Y018913D01*
X013197Y019055D02*
X013244Y019008D01*
X013567Y013654D02*
X013520Y013606D01*
X012791Y016350D02*
X012791Y016657D01*
X012909Y016350D02*
X012791Y016350D01*
X013402Y013913D02*
X013402Y013795D01*
X012791Y016657D02*
X012909Y016657D01*
D59*
X013222Y013661D02*
X012561Y013661D01*
X013277Y019587D02*
X013288Y019713D01*
X013222Y012085D02*
X012556Y012085D01*
X011646Y012085D02*
X011646Y013661D01*
X013222Y012085D02*
X013222Y013661D01*
X021455Y013028D02*
X022116Y013028D01*
X021455Y014604D02*
X021455Y013028D01*
X023031Y014604D02*
X023031Y013028D01*
X021455Y014604D02*
X022121Y014604D01*
X013277Y019838D02*
X013245Y019959D01*
X013288Y019713D02*
X013277Y019838D01*
X013245Y019959D02*
X013192Y020073D01*
X012320Y019035D02*
X012442Y019002D01*
X012206Y019088D02*
X012320Y019035D01*
X012567Y018991D02*
X012692Y019002D01*
X012442Y019002D02*
X012567Y018991D01*
X011942Y019352D02*
X012014Y019249D01*
X011889Y019466D02*
X011942Y019352D01*
X012103Y019160D02*
X012206Y019088D01*
X012014Y019249D02*
X012103Y019160D01*
X013192Y019352D02*
X013245Y019466D01*
X013119Y019249D02*
X013192Y019352D01*
X013245Y019466D02*
X013277Y019587D01*
X012814Y019035D02*
X012928Y019088D01*
X012692Y019002D02*
X012814Y019035D01*
X013031Y019160D02*
X013119Y019249D01*
X012928Y019088D02*
X013031Y019160D01*
X011857Y019587D02*
X011889Y019466D01*
X012692Y020423D02*
X012567Y020434D01*
X012814Y020390D02*
X012692Y020423D01*
X012442Y020423D02*
X012320Y020390D01*
X012567Y020434D02*
X012442Y020423D01*
X013119Y020176D02*
X013031Y020265D01*
X013192Y020073D02*
X013119Y020176D01*
X012928Y020337D02*
X012814Y020390D01*
X013031Y020265D02*
X012928Y020337D01*
X011889Y019959D02*
X011857Y019838D01*
X011942Y020073D02*
X011889Y019959D01*
X011846Y019713D02*
X011857Y019587D01*
X011857Y019838D02*
X011846Y019713D01*
X012206Y020337D02*
X012103Y020265D01*
X012320Y020390D02*
X012206Y020337D01*
X012014Y020176D02*
X011942Y020073D01*
X012103Y020265D02*
X012014Y020176D01*
X022333Y016516D02*
X022212Y016549D01*
X022639Y016302D02*
X022550Y016391D01*
X022711Y016199D02*
X022639Y016302D01*
X022447Y016463D02*
X022333Y016516D01*
X022550Y016391D02*
X022447Y016463D01*
X021726Y016463D02*
X021623Y016391D01*
X021840Y016516D02*
X021726Y016463D01*
X021623Y016391D02*
X021534Y016302D01*
X022212Y016549D02*
X022087Y016560D01*
X021961Y016549D02*
X021840Y016516D01*
X022087Y016560D02*
X021961Y016549D01*
X022764Y016085D02*
X022711Y016199D01*
X013219Y014612D02*
X012552Y014612D01*
X013219Y016189D02*
X012557Y016189D01*
X011642Y014612D02*
X011642Y016189D01*
X013219Y014612D02*
X013219Y016189D01*
X022797Y015964D02*
X022764Y016085D01*
X022808Y015839D02*
X022797Y015964D01*
X021534Y016302D02*
X021462Y016199D01*
X013219Y017045D02*
X012552Y017045D01*
X013219Y018622D02*
X012557Y018622D01*
X011642Y017045D02*
X011642Y018622D01*
X013219Y017045D02*
X013219Y018622D01*
X022711Y015478D02*
X022764Y015592D01*
X022639Y015375D02*
X022711Y015478D01*
X022797Y015713D02*
X022808Y015839D01*
X022764Y015592D02*
X022797Y015713D01*
X022550Y015286D02*
X022639Y015375D01*
X021409Y015592D02*
X021462Y015478D01*
X021376Y015713D02*
X021409Y015592D01*
X021534Y015375D02*
X021623Y015286D01*
X021462Y015478D02*
X021534Y015375D01*
X021409Y016085D02*
X021376Y015964D01*
X021462Y016199D02*
X021409Y016085D01*
X021365Y015839D02*
X021376Y015713D01*
X021376Y015964D02*
X021365Y015839D01*
X022212Y015128D02*
X022333Y015161D01*
X022087Y015117D02*
X022212Y015128D01*
X022447Y015214D02*
X022550Y015286D01*
X022333Y015161D02*
X022447Y015214D01*
X021726Y015214D02*
X021840Y015161D01*
X021623Y015286D02*
X021726Y015214D01*
X021961Y015128D02*
X022087Y015117D01*
X021840Y015161D02*
X021961Y015128D01*
X019713Y018180D02*
X019713Y018196D01*
X019989Y019243D02*
X019139Y018389D01*
X019490Y017957D02*
X019491Y017957D01*
X019713Y018196D02*
X019339Y018570D01*
X014776Y018437D02*
X015280Y018437D01*
X020942Y018274D02*
X020091Y017420D01*
X014780Y017677D02*
X015283Y017677D01*
X014709Y016217D02*
X014709Y017417D01*
X014709Y017417D02*
X015213Y017417D01*
X015213Y017417D02*
X015217Y016217D01*
X015217Y016217D02*
X014709Y016217D01*
X019491Y017957D02*
X019713Y018180D01*
X019756Y014098D02*
X019402Y014098D01*
X019756Y013248D02*
X019402Y013248D01*
X017142Y017638D02*
X017142Y018835D01*
X016634Y018839D02*
X017138Y018839D01*
X016634Y018839D02*
X016634Y017638D01*
X017142Y018835D02*
X017138Y018839D01*
X017142Y017638D02*
X016634Y017638D01*
X018213Y017252D02*
X018567Y017252D01*
X018213Y016402D02*
X018567Y016402D01*
X015236Y015177D02*
X015236Y015417D01*
X014846Y015173D02*
X014846Y015413D01*
X015091Y015705D02*
X014988Y015705D01*
X015236Y015177D02*
X015193Y015177D01*
X014846Y015173D02*
X014886Y015173D01*
X023681Y016689D02*
X023681Y019839D01*
X025020Y019839D02*
X023681Y019839D01*
X025020Y016689D02*
X023681Y016689D01*
X017043Y014110D02*
X017240Y014240D01*
X017240Y014240D02*
X017043Y014362D01*
X019484Y019366D02*
X019071Y019366D01*
X017043Y014362D02*
X017043Y014110D01*
X017252Y014370D02*
X017252Y014106D01*
D60*
X020882Y017324D02*
X021000Y017324D01*
X021047Y017229D02*
X021000Y017182D01*
X021047Y017277D02*
X021047Y017229D01*
X020953Y017182D02*
X021047Y017017D01*
X021000Y017182D02*
X020882Y017182D01*
X020882Y017017D02*
X020882Y017324D01*
X021000Y017324D02*
X021047Y017277D01*
X021598Y017182D02*
X021480Y017182D01*
X021185Y017324D02*
X021350Y017324D01*
X021185Y017017D02*
X021185Y017324D01*
X021350Y017017D02*
X021185Y017017D01*
X021480Y017324D02*
X021646Y017324D01*
X021480Y017017D02*
X021480Y017324D01*
X021303Y017182D02*
X021185Y017182D01*
X021776Y017017D02*
X021941Y017017D01*
X021776Y017324D02*
X021776Y017017D01*
D63*
X024000Y019988D02*
X024000Y020303D01*
X022457Y019713D02*
X022732Y019437D01*
X022457Y019437D02*
X022969Y019437D01*
X022654Y019516D02*
X022969Y019713D01*
X023697Y016390D02*
X024169Y016390D01*
X023933Y016232D02*
X023933Y016547D01*
D64*
X022276Y017249D02*
X022276Y017107D01*
X022028Y017249D02*
X022028Y017107D01*
X022205Y017036D02*
X022276Y017107D01*
X022098Y017036D02*
X022205Y017036D01*
X022276Y017249D02*
X022205Y017320D01*
X022098Y017320D02*
X022028Y017249D01*
X022205Y017320D02*
X022098Y017320D01*
X022028Y017107D02*
X022098Y017036D01*
D66*
X021191Y020178D02*
X021150Y020149D01*
X021150Y020149D02*
X021114Y020114D01*
X021236Y020199D02*
X021191Y020178D01*
X021335Y020217D02*
X021285Y020212D01*
X021285Y020212D02*
X021236Y020199D01*
X021114Y020114D02*
X021086Y020073D01*
X023764Y020217D02*
X021335Y020217D01*
X025651Y020217D02*
X024258Y020217D01*
X021052Y019979D02*
X021047Y019933D01*
X021086Y020073D02*
X021065Y020027D01*
X021065Y020027D02*
X021052Y019979D01*
X016839Y019884D02*
X016945Y019778D01*
X016945Y019778D02*
X016945Y019299D01*
X016315Y019193D02*
X016156Y019193D01*
X016049Y019778D02*
X016049Y019299D01*
X016049Y019299D02*
X016156Y019193D01*
X016945Y019299D02*
X016839Y019193D01*
X016573Y019299D02*
X016679Y019193D01*
X016839Y019193D02*
X016679Y019193D01*
X016573Y019778D02*
X016573Y019299D01*
X016679Y019884D02*
X016573Y019778D01*
X016679Y019884D02*
X016839Y019884D01*
X017968Y020539D02*
X017932Y020582D01*
X017932Y020582D02*
X017889Y020617D01*
X017996Y020491D02*
X017968Y020539D01*
X018024Y020383D02*
X018015Y020438D01*
X018015Y020438D02*
X017996Y020491D01*
X017889Y020617D02*
X017841Y020645D01*
X017678Y020674D02*
X017623Y020664D01*
X017623Y020664D02*
X017571Y020645D01*
X017734Y020674D02*
X017678Y020674D01*
X017841Y020645D02*
X017789Y020664D01*
X017789Y020664D02*
X017734Y020674D01*
X020317Y019478D02*
X019707Y019881D01*
X019707Y019881D02*
X019036Y020173D01*
X024377Y016316D02*
X025651Y016316D01*
X025651Y020217D02*
X025651Y016316D01*
X023094Y016315D02*
X023547Y016315D01*
X019036Y020173D02*
X018325Y020344D01*
X021047Y019933D02*
X021047Y019681D01*
X021047Y019681D03*
X020844Y019478D02*
X021047Y019681D01*
X018325Y020344D02*
X018027Y020378D01*
X020317Y019478D02*
X020844Y019478D01*
X020698Y017392D02*
X020665Y017344D01*
X020665Y017344D02*
X020640Y017291D01*
X020740Y017434D02*
X020698Y017392D01*
X020841Y017492D02*
X020788Y017468D01*
X020788Y017468D02*
X020740Y017434D01*
X020640Y017291D02*
X020625Y017234D01*
X020640Y017060D02*
X020665Y017007D01*
X020665Y017007D02*
X020698Y016959D01*
X020625Y017117D02*
X020640Y017060D01*
X020625Y017234D02*
X020620Y017176D01*
X020620Y017176D02*
X020625Y017117D01*
X020957Y017513D02*
X020898Y017508D01*
X020898Y017508D02*
X020841Y017492D01*
X020025Y018319D03*
X016156Y019884D02*
X016049Y019778D01*
X016156Y019884D02*
X016315Y019884D01*
X016421Y019299D02*
X016315Y019193D01*
X016315Y019884D02*
X016421Y019778D01*
X016421Y019778D02*
X016421Y019299D01*
X020841Y016859D02*
X020898Y016844D01*
X020898Y016844D02*
X020957Y016839D01*
X020788Y016884D02*
X020841Y016859D01*
X020698Y016959D02*
X020740Y016917D01*
X020740Y016917D02*
X020788Y016884D01*
X020957Y017513D02*
X022272Y017513D01*
X017713Y012961D03*
X022280Y016839D02*
X020957Y016839D01*
X020063Y015252D02*
X019933Y015291D01*
X019933Y015291D02*
X019933Y015201D01*
X020213Y015425D02*
X020213Y015496D01*
X021165Y015429D02*
X021165Y015496D01*
X019933Y015201D02*
X020063Y015252D01*
X021165Y015496D02*
X020213Y015496D01*
X017444Y020539D02*
X017416Y020491D01*
X017416Y020491D02*
X017397Y020438D01*
X017479Y020582D02*
X017444Y020539D01*
X017571Y020645D02*
X017522Y020617D01*
X017522Y020617D02*
X017479Y020582D01*
X017397Y020438D02*
X017390Y020405D01*
X015333Y019670D02*
X014765Y019205D01*
X014765Y019205D02*
X014552Y018982D01*
X015973Y020029D02*
X015333Y019670D01*
X017389Y020390D02*
X016665Y020271D01*
X016665Y020271D02*
X015973Y020029D01*
X020224Y014421D02*
X020224Y014484D01*
X021169Y014421D02*
X021169Y014488D01*
X020224Y014421D02*
X021169Y014421D01*
X020224Y014484D02*
X020232Y014492D01*
D69*
X016236Y019386D02*
X016236Y019343D01*
X016764Y019752D02*
X016764Y019709D01*
X016236Y019386D02*
X016193Y019386D01*
X016720Y019752D02*
X016720Y019709D01*
X016720Y019709D02*
X016764Y019709D01*
X016193Y019386D02*
X016193Y019343D01*
X016193Y019343D02*
X016236Y019343D01*
X016764Y019752D02*
X016720Y019752D01*
M02*
